<svg width="96" height="96" viewBox="0 0 96 96" fill="none" xmlns="http://www.w3.org/2000/svg">
<g clip-path="url(#clip0_4_12)">
<path d="M72 0H24C10.7452 0 0 10.7452 0 24V72C0 85.2548 10.7452 96 24 96H72C85.2548 96 96 85.2548 96 72V24C96 10.7452 85.2548 0 72 0Z" fill="url(#paint0_linear_4_12)"/>
<path d="M49.9766 39.6631C49.9616 40.9508 49.8343 42.1038 49.5947 43.1221C49.3701 44.1403 49.0407 45.0612 48.6064 45.8848C48.1872 46.6934 47.6706 47.4271 47.0566 48.0859C46.4577 48.7298 45.7689 49.3363 44.9902 49.9053C43.4928 50.9834 41.8532 51.7995 40.0713 52.3535C38.2894 52.8926 36.5 53.1621 34.7031 53.1621C34.4036 53.1621 34.1042 53.1546 33.8047 53.1396C33.5202 53.1247 33.2282 53.1022 32.9287 53.0723L32.1875 61.2705L31.8057 61.9668C31.7757 62.0267 31.5212 62.1465 31.042 62.3262C30.5628 62.5059 29.9639 62.7155 29.2451 62.9551L27.8301 63.4268C27.3809 63.5915 26.984 63.7412 26.6396 63.876C26.2952 64.0107 25.9733 64.1305 25.6738 64.2354C25.3743 64.3402 25.0824 64.415 24.7979 64.46C24.5133 64.5199 24.2139 64.5498 23.8994 64.5498C23.6898 64.5498 23.5251 64.4974 23.4053 64.3926C23.2855 64.2878 23.2256 64.0856 23.2256 63.7861L23.4727 59.9453C23.5176 59.1816 23.57 58.418 23.6299 57.6543C23.7048 56.8757 23.7721 55.9922 23.832 55.0039L24.2588 49.6357C24.3486 48.5426 24.431 47.4495 24.5059 46.3564C24.5807 45.2633 24.6556 44.2227 24.7305 43.2344C24.8053 42.2461 24.8727 41.3252 24.9326 40.4717C24.9925 39.6032 25.0449 38.847 25.0898 38.2031C24.2812 38.3828 23.6299 38.5176 23.1357 38.6074C22.6566 38.6823 22.2897 38.7197 22.0352 38.7197C21.7207 38.7197 21.5635 38.585 21.5635 38.3154C21.7731 37.5817 21.9678 36.863 22.1475 36.1592C22.3122 35.5602 22.4769 34.9463 22.6416 34.3174C22.8213 33.6735 22.971 33.1344 23.0908 32.7002C23.1657 32.4307 23.248 32.2285 23.3379 32.0938C23.4427 31.944 23.57 31.8317 23.7197 31.7568C23.8844 31.667 24.0866 31.5921 24.3262 31.5322C24.5807 31.4574 24.8877 31.36 25.2471 31.2402C25.5316 31.1504 25.9284 31.0531 26.4375 30.9482C26.9616 30.8285 27.5531 30.7161 28.2119 30.6113C28.8857 30.4915 29.612 30.3792 30.3906 30.2744C31.1693 30.1696 31.9554 30.0798 32.749 30.0049C33.5576 29.915 34.3512 29.8477 35.1299 29.8027C35.9085 29.7428 36.6423 29.7129 37.3311 29.7129C39.0381 29.7129 40.6553 29.8701 42.1826 30.1846C43.71 30.499 45.0501 31.0381 46.2031 31.8018C47.3561 32.5505 48.2695 33.5687 48.9434 34.8564C49.6322 36.1292 49.9766 37.7314 49.9766 39.6631ZM33.5576 46.4014C33.5576 46.5661 33.5876 46.7158 33.6475 46.8506C33.7074 46.9704 33.8721 47.0303 34.1416 47.0303C34.5609 47.0303 35.055 46.9404 35.624 46.7607C36.208 46.5661 36.7845 46.2816 37.3535 45.9072C37.9375 45.5329 38.4766 45.0687 38.9707 44.5146C39.4648 43.9606 39.8392 43.3092 40.0938 42.5605C40.1986 42.2611 40.2809 41.8792 40.3408 41.415C40.4157 40.9508 40.4531 40.4043 40.4531 39.7754C40.4531 38.7272 40.0863 37.9561 39.3525 37.4619C38.6338 36.9678 37.6904 36.7207 36.5225 36.7207C36.3278 36.7207 36.1032 36.7357 35.8486 36.7656C35.609 36.7806 35.377 36.818 35.1523 36.8779C34.9427 36.9378 34.763 37.0127 34.6133 37.1025C34.4635 37.1774 34.3812 37.2822 34.3662 37.417L34.3213 37.9111C34.3063 38.1058 34.2764 38.4277 34.2314 38.877C34.1865 39.3112 34.1341 39.8128 34.0742 40.3818C34.0293 40.9508 33.9769 41.5498 33.917 42.1787C33.8721 42.8076 33.8197 43.4066 33.7598 43.9756C33.7148 44.5446 33.6699 45.0462 33.625 45.4805C33.5951 45.9147 33.5726 46.2217 33.5576 46.4014ZM67.2939 46.873C67.1442 46.5286 66.9346 46.1768 66.665 45.8174C66.4105 45.458 66.111 45.1286 65.7666 44.8291C65.4222 44.5296 65.0479 44.29 64.6436 44.1104C64.2393 43.9157 63.8125 43.8184 63.3633 43.8184C62.7493 43.8184 62.1729 44.0729 61.6338 44.582C61.0947 45.0911 60.623 45.7725 60.2188 46.626C59.8145 47.4645 59.4925 48.4303 59.2529 49.5234C59.0283 50.6016 58.916 51.7246 58.916 52.8926C58.916 53.6113 58.9759 54.2926 59.0957 54.9365C59.2305 55.5654 59.4326 56.1195 59.7021 56.5986C59.9717 57.0778 60.3161 57.4596 60.7354 57.7441C61.1696 58.0286 61.6862 58.1709 62.2852 58.1709C63.1836 58.1709 64.0072 57.8939 64.7559 57.3398C65.5046 56.7708 66.141 56.0371 66.665 55.1387C66.68 54.8242 66.7025 54.4499 66.7324 54.0156C66.7624 53.5814 66.7998 53.0573 66.8447 52.4434C66.8896 51.8145 66.9421 51.0807 67.002 50.2422C67.0768 49.3887 67.1667 48.3779 67.2715 47.21L67.2939 46.873ZM75.874 37.9785C76.0537 37.9336 76.2184 37.9111 76.3682 37.9111C76.8324 37.9111 77.0645 38.2031 77.0645 38.7871C77.0645 38.862 77.0645 38.9368 77.0645 39.0117C77.0645 39.0716 77.057 39.1465 77.042 39.2363L74.1445 70.3672C74.1296 70.4121 74.1221 70.4945 74.1221 70.6143C74.1221 70.6742 74.1221 70.7266 74.1221 70.7715C74.137 70.8164 74.1445 70.8538 74.1445 70.8838C74.1445 71.0186 74.0921 71.1234 73.9873 71.1982C73.8975 71.2881 73.6504 71.3854 73.2461 71.4902L67.2939 73.6689C67.1292 73.7139 66.9121 73.7812 66.6426 73.8711C66.373 73.9759 66.111 74.0283 65.8564 74.0283C65.6468 74.0283 65.4596 73.9834 65.2949 73.8936C65.1302 73.8037 65.0479 73.639 65.0479 73.3994C65.0479 73.3096 65.0553 73.2422 65.0703 73.1973C65.0853 73.1374 65.1077 72.9277 65.1377 72.5684C65.1676 72.224 65.2051 71.7822 65.25 71.2432C65.2949 70.7191 65.3473 70.1201 65.4072 69.4463C65.4671 68.7874 65.5195 68.1061 65.5645 67.4023C65.6243 66.7135 65.6842 66.0322 65.7441 65.3584C65.804 64.6995 65.8564 64.1006 65.9014 63.5615C65.9463 63.0374 65.9837 62.6032 66.0137 62.2588C66.0436 61.8994 66.0661 61.6898 66.0811 61.6299C65.0029 62.3486 63.9098 62.9476 62.8018 63.4268C61.6937 63.9209 60.5781 64.168 59.4551 64.168C57.9128 64.168 56.5801 63.8535 55.457 63.2246C54.334 62.5957 53.4056 61.7572 52.6719 60.709C51.9382 59.6458 51.3916 58.4329 51.0322 57.0703C50.6878 55.6927 50.5156 54.2627 50.5156 52.7803C50.5156 51.5973 50.6204 50.4144 50.8301 49.2314C51.0547 48.0335 51.3766 46.888 51.7959 45.7949C52.2301 44.6868 52.7617 43.6536 53.3906 42.6953C54.0195 41.737 54.7458 40.9059 55.5693 40.2021C56.3929 39.4984 57.3063 38.9443 58.3096 38.54C59.3128 38.1357 60.4059 37.9336 61.5889 37.9336C62.9066 37.9336 64.1045 38.1956 65.1826 38.7197C66.2607 39.2438 67.2565 39.9326 68.1699 40.7861C68.1999 40.5166 68.2223 40.307 68.2373 40.1572C68.2523 39.9925 68.2897 39.8652 68.3496 39.7754C68.4095 39.6855 68.5068 39.6182 68.6416 39.5732C68.7913 39.5283 69.001 39.4759 69.2705 39.416C69.4352 39.3861 69.7347 39.3262 70.1689 39.2363C70.6032 39.1315 71.1198 39.0117 71.7188 38.877C72.3177 38.7422 72.9766 38.5999 73.6953 38.4502C74.4141 38.3005 75.1403 38.1432 75.874 37.9785Z" fill="white"/>
</g>
<defs>
<linearGradient id="paint0_linear_4_12" x1="0" y1="0" x2="96" y2="96" gradientUnits="userSpaceOnUse">
<stop stop-color="#355DF9"/>
<stop offset="1" stop-color="#6B8FFB"/>
</linearGradient>
<clipPath id="clip0_4_12">
<rect width="96" height="96" fill="white"/>
</clipPath>
</defs>
</svg>
